{
  "source": "C:\\Users\\Peter\\Desktop\\stuff\\MIUN\\quantitative_research\\video_compression\\videos\\BVI-HD\\BVI-HD_CDVL_videos\\ORIG\\Lightreef_1920x1080_30fps.mp4",
  "output": "C:\\Users\\Peter\\Desktop\\stuff\\MIUN\\quantitative_research\\video_compression\\compressed_videos\\BVI-HD\\hevc\\2.5\\Lightreef_1920x1080_30fps_hevc.mp4",
  "codec": "hevc",
  "ok": "Input #0, mov,mp4,m4a,3gp,3g2,mj2, from 'C:\\Users\\Peter\\Desktop\\stuff\\MIUN\\quantitative_research\\video_compression\\videos\\BVI-HD\\BVI-HD_CDVL_videos\\ORIG\\Lightreef_1920x1080_30fps.mp4':\n  Metadata:\n    major_brand     : isom\n    minor_version   : 512\n    compatible_brands: isomiso2avc1mp41\n    encoder         : Lavf54.28.101\n  Duration: 00:00:05.00, start: 0.000000, bitrate: 361719 kb/s\n  Stream #0:0[0x1](und): Video: h264 (High 4:4:4 Predictive) (avc1 / 0x31637661), yuv420p(progressive), 1920x1080, 361715 kb/s, 30 fps, 30 tbr, 30 tbn (default)\n    Metadata:\n      handler_name    : VideoHandler\n      vendor_id       : [0][0][0][0]\n[out#0/mp4 @ 000002742344ab00] Codec AVOption b:a (set bitrate (in bits/s)) has not been used for any stream. The most likely reason is either wrong type (e.g. a video option with no video streams) or that it is a private option of some decoder which was not actually used for any stream.\nStream mapping:\n  Stream #0:0 -> #0:0 (h264 (native) -> hevc (libx265))\nPress [q] to stop, [?] for help\n[libx265 @ 0000027423fc0bc0] Unknown option: \"aq-mode.\nx265 [info]: HEVC encoder version 4.1+190-8f11c33ac\nx265 [info]: build info [Windows][GCC 15.1.0][64 bit] 10bit\nx265 [info]: using cpu capabilities: MMX2 SSE2Fast LZCNT SSSE3 SSE4.2 AVX FMA3 BMI2 AVX2\nx265 [info]: Main 10 profile, Level-4 (Main tier)\nx265 [info]: Thread pool created using 12 threads\nx265 [info]: Slices                              : 1\nx265 [info]: frame threads / pool features       : 3 / wpp(17 rows)\nx265 [info]: Coding QT: max CU size, min CU size : 64 / 8\nx265 [info]: Residual QT: max TU size, max depth : 32 / 1 inter / 1 intra\nx265 [info]: ME / range / subpel / merge         : star / 57 / 3 / 3\nx265 [info]: Keyframe min / max / scenecut / bias  : 25 / 250 / 40 / 5.00 \nx265 [info]: Lookahead / bframes / badapt        : 25 / 4 / 2\nx265 [info]: b-pyramid / weightp / weightb       : 1 / 1 / 0\nx265 [info]: References / ref-limit  cu / depth  : 4 / on / on\nx265 [info]: AQ: mode / str / qg-size / cu-tree  : 2 / 1.0 / 32 / 1\nx265 [info]: Rate Control / qCompress            : ABR-2500 kbps / 0.60\nx265 [info]: VBV/HRD buffer / max-rate / init    : 2500 / 2500 / 0.750\nx265 [info]: tools: rect limit-modes rd=4 psy-rd=2.00 rdoq=2 psy-rdoq=1.00\nx265 [info]: tools: rskip mode=1 signhide tmvp strong-intra-smoothing lslices=4\nx265 [info]: tools: deblock sao dhdr10-info\nOutput #0, mp4, to 'C:\\Users\\Peter\\Desktop\\stuff\\MIUN\\quantitative_research\\video_compression\\compressed_videos\\BVI-HD\\hevc\\2.5\\Lightreef_1920x1080_30fps_hevc.mp4':\n  Metadata:\n    major_brand     : isom\n    minor_version   : 512\n    compatible_brands: isomiso2avc1mp41\n    encoder         : Lavf62.3.100\n  Stream #0:0(und): Video: hevc (hev1 / 0x31766568), yuv420p10le(tv, progressive), 1920x1080, q=2-31, 2500 kb/s, 30 fps, 15360 tbn (default)\n    Metadata:\n      encoder         : Lavc62.11.100 libx265\n      handler_name    : VideoHandler\n      vendor_id       : [0][0][0][0]\n    Side data:\n      cpb: bitrate max/min/avg: 2500000/0/2500000 buffer size: 2500000 vbv_delay: N/A\nframe=    0 fps=0.0 q=0.0 size=       0KiB time=N/A bitrate=N/A speed=N/A elapsed=0:00:00.50    \nframe=    0 fps=0.0 q=0.0 size=       0KiB time=N/A bitrate=N/A speed=N/A elapsed=0:00:01.02    \nframe=    0 fps=0.0 q=0.0 size=       0KiB time=N/A bitrate=N/A speed=N/A elapsed=0:00:01.61    \nframe=    0 fps=0.0 q=0.0 size=       0KiB time=N/A bitrate=N/A speed=N/A elapsed=0:00:02.19    \nframe=    0 fps=0.0 q=0.0 size=       0KiB time=N/A bitrate=N/A speed=N/A elapsed=0:00:02.70    \nframe=    0 fps=0.0 q=0.0 size=       0KiB time=N/A bitrate=N/A speed=N/A elapsed=0:00:03.23    \nframe=    0 fps=0.0 q=0.0 size=       0KiB time=N/A bitrate=N/A speed=N/A elapsed=0:00:03.78    \nframe=    0 fps=0.0 q=0.0 size=       0KiB time=N/A bitrate=N/A speed=N/A elapsed=0:00:04.30    \nframe=    0 fps=0.0 q=0.0 size=       0KiB time=N/A bitrate=N/A speed=N/A elapsed=0:00:04.81    \nframe=    0 fps=0.0 q=0.0 size=       0KiB time=N/A bitrate=N/A speed=N/A elapsed=0:00:05.35    \nframe=    0 fps=0.0 q=0.0 size=       0KiB time=N/A bitrate=N/A speed=N/A elapsed=0:00:05.87    \nframe=    0 fps=0.0 q=0.0 size=       0KiB time=N/A bitrate=N/A speed=N/A elapsed=0:00:06.38    \nframe=    0 fps=0.0 q=0.0 size=       0KiB time=N/A bitrate=N/A speed=N/A elapsed=0:00:06.93    \nframe=    0 fps=0.0 q=0.0 size=       0KiB time=N/A bitrate=N/A speed=N/A elapsed=0:00:07.44    \nframe=    0 fps=0.0 q=0.0 size=       0KiB time=N/A bitrate=N/A speed=N/A elapsed=0:00:07.96    \nframe=    0 fps=0.0 q=0.0 size=       0KiB time=N/A bitrate=N/A speed=N/A elapsed=0:00:08.48    \nframe=    0 fps=0.0 q=0.0 size=       0KiB time=N/A bitrate=N/A speed=N/A elapsed=0:00:09.00    \nframe=    0 fps=0.0 q=0.0 size=       0KiB time=N/A bitrate=N/A speed=N/A elapsed=0:00:09.52    \nframe=    0 fps=0.0 q=0.0 size=       0KiB time=N/A bitrate=N/A speed=N/A elapsed=0:00:10.06    \nframe=    0 fps=0.0 q=0.0 size=       0KiB time=N/A bitrate=N/A speed=N/A elapsed=0:00:10.58    \nframe=    1 fps=0.1 q=37.8 size=       0KiB time=-00:00:00.03 bitrate=N/A speed=N/A elapsed=0:00:11.10    \nframe=    1 fps=0.1 q=37.8 size=       0KiB time=-00:00:00.03 bitrate=N/A speed=N/A elapsed=0:00:11.62    \nframe=    2 fps=0.2 q=45.0 size=       0KiB time=00:00:00.00 bitrate=N/A speed=   0x elapsed=0:00:12.15    \nframe=    3 fps=0.2 q=50.0 size=       0KiB time=00:00:00.03 bitrate=  10.6kbits/s speed=0.00263x elapsed=0:00:12.69    \nframe=    3 fps=0.2 q=50.0 size=       0KiB time=00:00:00.03 bitrate=  10.6kbits/s speed=0.00252x elapsed=0:00:13.23    \nframe=    3 fps=0.2 q=50.0 size=       0KiB time=00:00:00.03 bitrate=  10.6kbits/s speed=0.00242x elapsed=0:00:13.74    \nframe=    4 fps=0.3 q=50.8 size=       0KiB time=00:00:00.06 bitrate=   5.3kbits/s speed=0.00467x elapsed=0:00:14.27    \nframe=    4 fps=0.3 q=50.8 size=       0KiB time=00:00:00.06 bitrate=   5.3kbits/s speed=0.0045x elapsed=0:00:14.80    \nframe=    4 fps=0.3 q=50.8 size=       0KiB time=00:00:00.06 bitrate=   5.3kbits/s speed=0.00435x elapsed=0:00:15.33    \nframe=    4 fps=0.3 q=50.8 size=       0KiB time=00:00:00.06 bitrate=   5.3kbits/s speed=0.0042x elapsed=0:00:15.87    \nframe=    5 fps=0.3 q=47.8 size=       0KiB time=00:00:00.10 bitrate=   3.5kbits/s speed=0.00609x elapsed=0:00:16.42    \nframe=    5 fps=0.3 q=47.8 size=       0KiB time=00:00:00.10 bitrate=   3.5kbits/s speed=0.0059x elapsed=0:00:16.95    \nframe=    5 fps=0.3 q=47.8 size=       0KiB time=00:00:00.10 bitrate=   3.5kbits/s speed=0.00573x elapsed=0:00:17.46    \nframe=    5 fps=0.3 q=47.8 size=       0KiB time=00:00:00.10 bitrate=   3.5kbits/s speed=0.00556x elapsed=0:00:17.97    \nframe=    6 fps=0.3 q=47.1 size=       0KiB time=00:00:00.13 bitrate=   2.6kbits/s speed=0.0072x elapsed=0:00:18.50    \nframe=    6 fps=0.3 q=47.1 size=       0KiB time=00:00:00.13 bitrate=   2.6kbits/s speed=0.00701x elapsed=0:00:19.02    \nframe=    7 fps=0.4 q=42.7 size=       0KiB time=00:00:00.16 bitrate=   2.1kbits/s speed=0.00853x elapsed=0:00:19.53    \nframe=    7 fps=0.3 q=42.7 size=       0KiB time=00:00:00.16 bitrate=   2.1kbits/s speed=0.00831x elapsed=0:00:20.05    \nframe=    7 fps=0.3 q=42.7 size=       0KiB time=00:00:00.16 bitrate=   2.1kbits/s speed=0.0081x elapsed=0:00:20.58    \nframe=    8 fps=0.4 q=44.8 size=       0KiB time=00:00:00.20 bitrate=   1.8kbits/s speed=0.00947x elapsed=0:00:21.11    \nframe=    9 fps=0.4 q=45.5 size=       0KiB time=00:00:00.23 bitrate=   1.5kbits/s speed=0.0108x elapsed=0:00:21.65    \nframe=    9 fps=0.4 q=45.5 size=       0KiB time=00:00:00.23 bitrate=   1.5kbits/s speed=0.0105x elapsed=0:00:22.18    \nframe=   10 fps=0.4 q=45.3 size=       0KiB time=00:00:00.26 bitrate=   1.3kbits/s speed=0.0118x elapsed=0:00:22.69    \nframe=   10 fps=0.4 q=45.3 size=       0KiB time=00:00:00.26 bitrate=   1.3kbits/s speed=0.0115x elapsed=0:00:23.21    \nframe=   10 fps=0.4 q=45.3 size=       0KiB time=00:00:00.26 bitrate=   1.3kbits/s speed=0.0112x elapsed=0:00:23.75    \nframe=   11 fps=0.5 q=44.5 size=       0KiB time=00:00:00.30 bitrate=   1.2kbits/s speed=0.0124x elapsed=0:00:24.28    \nframe=   11 fps=0.4 q=44.5 size=       0KiB time=00:00:00.30 bitrate=   1.2kbits/s speed=0.0121x elapsed=0:00:24.80    \nframe=   12 fps=0.5 q=39.5 size=       0KiB time=00:00:00.33 bitrate=   1.1kbits/s speed=0.0131x elapsed=0:00:25.34    \nframe=   12 fps=0.5 q=39.5 size=       0KiB time=00:00:00.33 bitrate=   1.1kbits/s speed=0.0129x elapsed=0:00:25.88    \nframe=   12 fps=0.5 q=39.5 size=       0KiB time=00:00:00.33 bitrate=   1.1kbits/s speed=0.0126x elapsed=0:00:26.39    \nframe=   13 fps=0.5 q=42.8 size=       0KiB time=00:00:00.36 bitrate=   1.0kbits/s speed=0.0136x elapsed=0:00:26.92    \nframe=   13 fps=0.5 q=42.8 size=       0KiB time=00:00:00.36 bitrate=   1.0kbits/s speed=0.0134x elapsed=0:00:27.43    \nframe=   14 fps=0.5 q=43.6 size=       0KiB time=00:00:00.40 bitrate=   0.9kbits/s speed=0.0143x elapsed=0:00:27.95    \nframe=   14 fps=0.5 q=43.6 size=       0KiB time=00:00:00.40 bitrate=   0.9kbits/s speed=0.014x elapsed=0:00:28.51    \nframe=   14 fps=0.5 q=43.6 size=       0KiB time=00:00:00.40 bitrate=   0.9kbits/s speed=0.0137x elapsed=0:00:29.12    \nframe=   14 fps=0.5 q=43.6 size=       0KiB time=00:00:00.40 bitrate=   0.9kbits/s speed=0.0135x elapsed=0:00:29.66    \nframe=   14 fps=0.5 q=43.6 size=       0KiB time=00:00:00.40 bitrate=   0.9kbits/s speed=0.0132x elapsed=0:00:30.22    \nframe=   14 fps=0.5 q=43.6 size=       0KiB time=00:00:00.40 bitrate=   0.9kbits/s speed=0.013x elapsed=0:00:30.74    \nframe=   15 fps=0.5 q=43.3 size=       0KiB time=00:00:00.43 bitrate=   0.8kbits/s speed=0.0139x elapsed=0:00:31.25    \nframe=   16 fps=0.5 q=39.0 size=       0KiB time=00:00:00.46 bitrate=   0.8kbits/s speed=0.0147x elapsed=0:00:31.78    \nframe=   17 fps=0.5 q=42.9 size=       0KiB time=00:00:00.50 bitrate=   0.7kbits/s speed=0.0155x elapsed=0:00:32.31    \nframe=   17 fps=0.5 q=42.9 size=       0KiB time=00:00:00.50 bitrate=   0.7kbits/s speed=0.0152x elapsed=0:00:32.85    \nframe=   17 fps=0.5 q=42.9 size=       0KiB time=00:00:00.50 bitrate=   0.7kbits/s speed=0.015x elapsed=0:00:33.38    \nframe=   18 fps=0.5 q=44.0 size=       0KiB time=00:00:00.50 bitrate=   0.7kbits/s speed=0.0147x elapsed=0:00:33.92    \nframe=   18 fps=0.5 q=44.0 size=       0KiB time=00:00:00.53 bitrate=   0.7kbits/s speed=0.0155x elapsed=0:00:34.49    \nframe=   18 fps=0.5 q=44.0 size=       0KiB time=00:00:00.53 bitrate=   0.7kbits/s speed=0.0152x elapsed=0:00:35.01    \nframe=   18 fps=0.5 q=44.0 size=       0KiB time=00:00:00.53 bitrate=   0.7kbits/s speed=0.015x elapsed=0:00:35.53    \nframe=   18 fps=0.5 q=44.0 size=       0KiB time=00:00:00.53 bitrate=   0.7kbits/s speed=0.0148x elapsed=0:00:36.05    \nframe=   18 fps=0.5 q=44.0 size=       0KiB time=00:00:00.53 bitrate=   0.7kbits/s speed=0.0146x elapsed=0:00:36.57    \nframe=   19 fps=0.5 q=43.6 size=       0KiB time=00:00:00.56 bitrate=   0.6kbits/s speed=0.0153x elapsed=0:00:37.08    \nframe=   19 fps=0.5 q=43.6 size=       0KiB time=00:00:00.56 bitrate=   0.6kbits/s speed=0.0151x elapsed=0:00:37.63    \nframe=   19 fps=0.5 q=43.6 size=       0KiB time=00:00:00.56 bitrate=   0.6kbits/s speed=0.0148x elapsed=0:00:38.16    \nframe=   19 fps=0.5 q=43.6 size=       0KiB time=00:00:00.56 bitrate=   0.6kbits/s speed=0.0146x elapsed=0:00:38.74    \nframe=   20 fps=0.5 q=43.6 size=       0KiB time=00:00:00.60 bitrate=   0.6kbits/s speed=0.0153x elapsed=0:00:39.27    \nframe=   20 fps=0.5 q=43.6 size=       0KiB time=00:00:00.60 bitrate=   0.6kbits/s speed=0.0151x elapsed=0:00:39.79    \nframe=   20 fps=0.5 q=43.6 size=       0KiB time=00:00:00.60 bitrate=   0.6kbits/s speed=0.0149x elapsed=0:00:40.31    \nframe=   21 fps=0.5 q=38.7 size=       0KiB time=00:00:00.63 bitrate=   0.6kbits/s speed=0.0155x elapsed=0:00:40.83    \nframe=   22 fps=0.5 q=41.3 size=       0KiB time=00:00:00.66 bitrate=   0.5kbits/s speed=0.0161x elapsed=0:00:41.35    \nframe=   22 fps=0.5 q=41.3 size=       0KiB time=00:00:00.66 bitrate=   0.5kbits/s speed=0.0159x elapsed=0:00:41.90    \nframe=   22 fps=0.5 q=41.3 size=       0KiB time=00:00:00.66 bitrate=   0.5kbits/s speed=0.0157x elapsed=0:00:42.41    \nframe=   22 fps=0.5 q=41.3 size=       0KiB time=00:00:00.66 bitrate=   0.5kbits/s speed=0.0155x elapsed=0:00:42.94    \nframe=   23 fps=0.5 q=43.8 size=       0KiB time=00:00:00.70 bitrate=   0.5kbits/s speed=0.0161x elapsed=0:00:43.45    \nframe=   23 fps=0.5 q=43.8 size=       0KiB time=00:00:00.70 bitrate=   0.5kbits/s speed=0.0159x elapsed=0:00:43.98    \nframe=   23 fps=0.5 q=43.8 size=       0KiB time=00:00:00.70 bitrate=   0.5kbits/s speed=0.0157x elapsed=0:00:44.52    \nframe=   24 fps=0.5 q=43.9 size=       0KiB time=00:00:00.73 bitrate=   0.5kbits/s speed=0.0163x elapsed=0:00:45.06    \nframe=   24 fps=0.5 q=43.9 size=       0KiB time=00:00:00.73 bitrate=   0.5kbits/s speed=0.0161x elapsed=0:00:45.57    \nframe=   24 fps=0.5 q=43.9 size=       0KiB time=00:00:00.73 bitrate=   0.5kbits/s speed=0.0159x elapsed=0:00:46.08    \nframe=   25 fps=0.5 q=37.8 size=       0KiB time=00:00:00.76 bitrate=   0.5kbits/s speed=0.0164x elapsed=0:00:46.61    \nframe=   25 fps=0.5 q=37.8 size=       0KiB time=00:00:00.76 bitrate=   0.5kbits/s speed=0.0163x elapsed=0:00:47.16    \nframe=   26 fps=0.5 q=39.1 size=     256KiB time=00:00:00.80 bitrate=2621.9kbits/s speed=0.0168x elapsed=0:00:47.69    \nframe=   26 fps=0.5 q=39.1 size=     256KiB time=00:00:00.80 bitrate=2621.9kbits/s speed=0.0166x elapsed=0:00:48.25    \nframe=   26 fps=0.5 q=39.1 size=     256KiB time=00:00:00.80 bitrate=2621.9kbits/s speed=0.0164x elapsed=0:00:48.86    \nframe=   26 fps=0.5 q=39.1 size=     256KiB time=00:00:00.80 bitrate=2621.9kbits/s speed=0.0162x elapsed=0:00:49.46    \nframe=   26 fps=0.5 q=39.1 size=     256KiB time=00:00:00.80 bitrate=2621.9kbits/s speed=0.016x elapsed=0:00:49.98    \nframe=   27 fps=0.5 q=44.5 size=     256KiB time=00:00:00.83 bitrate=2517.0kbits/s speed=0.0165x elapsed=0:00:50.52    \nframe=   27 fps=0.5 q=44.5 size=     256KiB time=00:00:00.83 bitrate=2517.0kbits/s speed=0.0163x elapsed=0:00:51.04    \nframe=   27 fps=0.5 q=44.5 size=     256KiB time=00:00:00.83 bitrate=2517.0kbits/s speed=0.0162x elapsed=0:00:51.56    \nframe=   27 fps=0.5 q=44.5 size=     256KiB time=00:00:00.83 bitrate=2517.0kbits/s speed=0.016x elapsed=0:00:52.08    \nframe=   28 fps=0.5 q=44.3 size=     256KiB time=00:00:00.86 bitrate=2420.2kbits/s speed=0.0165x elapsed=0:00:52.60    \nframe=   28 fps=0.5 q=44.3 size=     256KiB time=00:00:00.86 bitrate=2420.2kbits/s speed=0.0163x elapsed=0:00:53.11    \nframe=   29 fps=0.5 q=44.2 size=     256KiB time=00:00:00.90 bitrate=2330.6kbits/s speed=0.0168x elapsed=0:00:53.63    \nframe=   30 fps=0.6 q=37.7 size=     256KiB time=00:00:00.93 bitrate=2247.3kbits/s speed=0.0172x elapsed=0:00:54.15    \nframe=   31 fps=0.6 q=41.6 size=     256KiB time=00:00:00.96 bitrate=2169.8kbits/s speed=0.0177x elapsed=0:00:54.68    \nframe=   31 fps=0.6 q=41.6 size=     256KiB time=00:00:00.96 bitrate=2169.8kbits/s speed=0.0175x elapsed=0:00:55.25    \nframe=   31 fps=0.6 q=41.6 size=     256KiB time=00:00:00.96 bitrate=2169.8kbits/s speed=0.0173x elapsed=0:00:55.80    \nframe=   31 fps=0.6 q=41.6 size=     256KiB time=00:00:00.96 bitrate=2169.8kbits/s speed=0.0172x elapsed=0:00:56.36    \nframe=   31 fps=0.5 q=41.6 size=     256KiB time=00:00:00.96 bitrate=2169.8kbits/s speed=0.017x elapsed=0:00:56.91    \nframe=   31 fps=0.5 q=41.6 size=     256KiB time=00:00:00.96 bitrate=2169.8kbits/s speed=0.0168x elapsed=0:00:57.52    \nframe=   31 fps=0.5 q=41.6 size=     256KiB time=00:00:00.96 bitrate=2169.8kbits/s speed=0.0166x elapsed=0:00:58.06    \nframe=   31 fps=0.5 q=41.6 size=     256KiB time=00:00:00.96 bitrate=2169.8kbits/s speed=0.0165x elapsed=0:00:58.67    \nframe=   32 fps=0.5 q=44.0 size=     256KiB time=00:00:01.00 bitrate=2097.5kbits/s speed=0.0169x elapsed=0:00:59.28    \nframe=   32 fps=0.5 q=44.0 size=     256KiB time=00:00:01.00 bitrate=2097.5kbits/s speed=0.0167x elapsed=0:00:59.89    \nframe=   32 fps=0.5 q=44.0 size=     256KiB time=00:00:01.00 bitrate=2097.5kbits/s speed=0.0165x elapsed=0:01:00.47    \nframe=   32 fps=0.5 q=44.0 size=     256KiB time=00:00:01.00 bitrate=2097.5kbits/s speed=0.0164x elapsed=0:01:01.00    \nframe=   32 fps=0.5 q=44.0 size=     256KiB time=00:00:01.00 bitrate=2097.5kbits/s speed=0.0162x elapsed=0:01:01.56    \nframe=   32 fps=0.5 q=44.0 size=     256KiB time=00:00:01.00 bitrate=2097.5kbits/s speed=0.0161x elapsed=0:01:02.12    \nframe=   32 fps=0.5 q=44.0 size=     256KiB time=00:00:01.00 bitrate=2097.5kbits/s speed=0.016x elapsed=0:01:02.66    \nframe=   33 fps=0.5 q=43.9 size=     256KiB time=00:00:01.00 bitrate=2097.5kbits/s speed=0.0158x elapsed=0:01:03.17    \nframe=   33 fps=0.5 q=43.9 size=     256KiB time=00:00:01.03 bitrate=2029.8kbits/s speed=0.0162x elapsed=0:01:03.74    \nframe=   33 fps=0.5 q=43.9 size=     256KiB time=00:00:01.03 bitrate=2029.8kbits/s speed=0.0161x elapsed=0:01:04.29    \nframe=   33 fps=0.5 q=43.9 size=     256KiB time=00:00:01.03 bitrate=2029.8kbits/s speed=0.0159x elapsed=0:01:04.81    \nframe=   33 fps=0.5 q=43.9 size=     256KiB time=00:00:01.03 bitrate=2029.8kbits/s speed=0.0158x elapsed=0:01:05.36    \nframe=   34 fps=0.5 q=38.0 size=     256KiB time=00:00:01.06 bitrate=1966.4kbits/s speed=0.0162x elapsed=0:01:05.99    \nframe=   34 fps=0.5 q=38.0 size=     256KiB time=00:00:01.06 bitrate=1966.4kbits/s speed=0.016x elapsed=0:01:06.52    \nframe=   35 fps=0.5 q=41.6 size=     256KiB time=00:00:01.10 bitrate=1906.8kbits/s speed=0.0164x elapsed=0:01:07.06    \nframe=   35 fps=0.5 q=41.6 size=     256KiB time=00:00:01.10 bitrate=1906.8kbits/s speed=0.0163x elapsed=0:01:07.60    \nframe=   35 fps=0.5 q=41.6 size=     256KiB time=00:00:01.10 bitrate=1906.8kbits/s speed=0.0161x elapsed=0:01:08.13    \nframe=   36 fps=0.5 q=44.1 size=     256KiB time=00:00:01.13 bitrate=1850.7kbits/s speed=0.0165x elapsed=0:01:08.67    \nframe=   36 fps=0.5 q=44.1 size=     256KiB time=00:00:01.13 bitrate=1850.7kbits/s speed=0.0164x elapsed=0:01:09.25    \nframe=   36 fps=0.5 q=44.1 size=     256KiB time=00:00:01.13 bitrate=1850.7kbits/s speed=0.0162x elapsed=0:01:09.79    \nframe=   36 fps=0.5 q=44.1 size=     256KiB time=00:00:01.13 bitrate=1850.7kbits/s speed=0.0161x elapsed=0:01:10.35    \nframe=   36 fps=0.5 q=44.1 size=     256KiB time=00:00:01.13 bitrate=1850.7kbits/s speed=0.016x elapsed=0:01:10.89    \nframe=   36 fps=0.5 q=44.1 size=     256KiB time=00:00:01.13 bitrate=1850.7kbits/s speed=0.0159x elapsed=0:01:11.49    \nframe=   36 fps=0.5 q=44.1 size=     256KiB time=00:00:01.13 bitrate=1850.7kbits/s speed=0.0157x elapsed=0:01:12.11    \nframe=   36 fps=0.5 q=44.1 size=     256KiB time=00:00:01.13 bitrate=1850.7kbits/s speed=0.0156x elapsed=0:01:12.71    \nframe=   36 fps=0.5 q=44.1 size=     256KiB time=00:00:01.13 bitrate=1850.7kbits/s speed=0.0155x elapsed=0:01:13.24    \nframe=   36 fps=0.5 q=44.1 size=     256KiB time=00:00:01.13 bitrate=1850.7kbits/s speed=0.0154x elapsed=0:01:13.82    \nframe=   36 fps=0.5 q=44.1 size=     256KiB time=00:00:01.13 bitrate=1850.7kbits/s speed=0.0152x elapsed=0:01:14.39    \nframe=   36 fps=0.5 q=44.1 size=     256KiB time=00:00:01.13 bitrate=1850.7kbits/s speed=0.0151x elapsed=0:01:14.97    \nframe=   36 fps=0.5 q=44.1 size=     256KiB time=00:00:01.13 bitrate=1850.7kbits/s speed=0.015x elapsed=0:01:15.52    \nframe=   36 fps=0.5 q=44.1 size=     256KiB time=00:00:01.13 bitrate=1850.7kbits/s speed=0.0149x elapsed=0:01:16.05    \nframe=   36 fps=0.5 q=44.1 size=     256KiB time=00:00:01.13 bitrate=1850.7kbits/s speed=0.0148x elapsed=0:01:16.62    \nframe=   36 fps=0.5 q=44.1 size=     256KiB time=00:00:01.13 bitrate=1850.7kbits/s speed=0.0147x elapsed=0:01:17.19    \nframe=   36 fps=0.5 q=44.1 size=     256KiB time=00:00:01.13 bitrate=1850.7kbits/s speed=0.0146x elapsed=0:01:17.71    \nframe=   36 fps=0.5 q=44.1 size=     256KiB time=00:00:01.13 bitrate=1850.7kbits/s speed=0.0145x elapsed=0:01:18.24    \nframe=   36 fps=0.5 q=44.1 size=     256KiB time=00:00:01.13 bitrate=1850.7kbits/s speed=0.0144x elapsed=0:01:18.80    \nframe=   36 fps=0.5 q=44.1 size=     256KiB time=00:00:01.13 bitrate=1850.7kbits/s speed=0.0143x elapsed=0:01:19.40    \nframe=   36 fps=0.5 q=44.1 size=     256KiB time=00:00:01.13 bitrate=1850.7kbits/s speed=0.0142x elapsed=0:01:19.94    \nframe=   37 fps=0.5 q=43.5 size=     256KiB time=00:00:01.16 bitrate=1797.9kbits/s speed=0.0145x elapsed=0:01:20.47    \nframe=   37 fps=0.5 q=43.5 size=     256KiB time=00:00:01.16 bitrate=1797.9kbits/s speed=0.0144x elapsed=0:01:21.01    \nframe=   37 fps=0.5 q=43.5 size=     256KiB time=00:00:01.16 bitrate=1797.9kbits/s speed=0.0143x elapsed=0:01:21.56    \nframe=   38 fps=0.5 q=43.7 size=     256KiB time=00:00:01.20 bitrate=1747.9kbits/s speed=0.0146x elapsed=0:01:22.11    \nframe=   38 fps=0.5 q=43.7 size=     256KiB time=00:00:01.20 bitrate=1747.9kbits/s speed=0.0145x elapsed=0:01:22.68    \nframe=   38 fps=0.5 q=43.7 size=     256KiB time=00:00:01.20 bitrate=1747.9kbits/s speed=0.0144x elapsed=0:01:23.21    \nframe=   39 fps=0.5 q=37.9 size=     256KiB time=00:00:01.23 bitrate=1700.7kbits/s speed=0.0147x elapsed=0:01:23.72    \nframe=   39 fps=0.5 q=37.9 size=     256KiB time=00:00:01.23 bitrate=1700.7kbits/s speed=0.0146x elapsed=0:01:24.26    \nframe=   39 fps=0.5 q=37.9 size=     256KiB time=00:00:01.23 bitrate=1700.7kbits/s speed=0.0145x elapsed=0:01:24.80    \nframe=   39 fps=0.5 q=37.9 size=     256KiB time=00:00:01.23 bitrate=1700.7kbits/s speed=0.0145x elapsed=0:01:25.34    \nframe=   39 fps=0.5 q=37.9 size=     256KiB time=00:00:01.23 bitrate=1700.7kbits/s speed=0.0144x elapsed=0:01:25.89    \nframe=   39 fps=0.5 q=37.9 size=     256KiB time=00:00:01.23 bitrate=1700.7kbits/s speed=0.0143x elapsed=0:01:26.46    \nframe=   39 fps=0.4 q=37.9 size=     256KiB time=00:00:01.23 bitrate=1700.7kbits/s speed=0.0142x elapsed=0:01:27.04    \nframe=   39 fps=0.4 q=37.9 size=     256KiB time=00:00:01.23 bitrate=1700.7kbits/s speed=0.0141x elapsed=0:01:27.72    \nframe=   39 fps=0.4 q=37.9 size=     256KiB time=00:00:01.23 bitrate=1700.7kbits/s speed=0.014x elapsed=0:01:28.33    \nframe=   39 fps=0.4 q=37.9 size=     256KiB time=00:00:01.23 bitrate=1700.7kbits/s speed=0.0139x elapsed=0:01:28.92    \nframe=   39 fps=0.4 q=37.9 size=     256KiB time=00:00:01.23 bitrate=1700.7kbits/s speed=0.0138x elapsed=0:01:29.50    \nframe=   39 fps=0.4 q=37.9 size=     256KiB time=00:00:01.23 bitrate=1700.7kbits/s speed=0.0137x elapsed=0:01:30.04    \nframe=   39 fps=0.4 q=37.9 size=     256KiB time=00:00:01.23 bitrate=1700.7kbits/s speed=0.0136x elapsed=0:01:30.61    \nframe=   39 fps=0.4 q=37.9 size=     256KiB time=00:00:01.23 bitrate=1700.7kbits/s speed=0.0135x elapsed=0:01:31.14    \nframe=   39 fps=0.4 q=37.9 size=     256KiB time=00:00:01.23 bitrate=1700.7kbits/s speed=0.0135x elapsed=0:01:31.68    \nframe=   39 fps=0.4 q=37.9 size=     256KiB time=00:00:01.23 bitrate=1700.7kbits/s speed=0.0134x elapsed=0:01:32.20    \nframe=   40 fps=0.4 q=40.6 size=     256KiB time=00:00:01.26 bitrate=1655.9kbits/s speed=0.0137x elapsed=0:01:32.75    \nframe=   40 fps=0.4 q=40.6 size=     256KiB time=00:00:01.26 bitrate=1655.9kbits/s speed=0.0136x elapsed=0:01:33.35    \nframe=   40 fps=0.4 q=40.6 size=     256KiB time=00:00:01.26 bitrate=1655.9kbits/s speed=0.0135x elapsed=0:01:33.88    \nframe=   40 fps=0.4 q=40.6 size=     256KiB time=00:00:01.26 bitrate=1655.9kbits/s speed=0.0134x elapsed=0:01:34.46    \nframe=   41 fps=0.4 q=43.4 size=     256KiB time=00:00:01.30 bitrate=1613.5kbits/s speed=0.0137x elapsed=0:01:34.99    \nframe=   41 fps=0.4 q=43.4 size=     256KiB time=00:00:01.30 bitrate=1613.5kbits/s speed=0.0136x elapsed=0:01:35.50    \nframe=   41 fps=0.4 q=43.4 size=     256KiB time=00:00:01.30 bitrate=1613.5kbits/s speed=0.0135x elapsed=0:01:36.02    \nframe=   42 fps=0.4 q=37.5 size=     256KiB time=00:00:01.33 bitrate=1573.1kbits/s speed=0.0138x elapsed=0:01:36.57    \nframe=   42 fps=0.4 q=37.5 size=     256KiB time=00:00:01.33 bitrate=1573.1kbits/s speed=0.0137x elapsed=0:01:37.13    \nframe=   43 fps=0.4 q=41.0 size=     256KiB time=00:00:01.36 bitrate=1534.8kbits/s speed=0.014x elapsed=0:01:37.68    \nframe=   43 fps=0.4 q=41.0 size=     256KiB time=00:00:01.36 bitrate=1534.8kbits/s speed=0.0139x elapsed=0:01:38.21    \nframe=   43 fps=0.4 q=41.0 size=     256KiB time=00:00:01.36 bitrate=1534.8kbits/s speed=0.0138x elapsed=0:01:38.72    \nframe=   43 fps=0.4 q=41.0 size=     256KiB time=00:00:01.36 bitrate=1534.8kbits/s speed=0.0138x elapsed=0:01:39.24    \nframe=   43 fps=0.4 q=41.0 size=     256KiB time=00:00:01.36 bitrate=1534.8kbits/s speed=0.0137x elapsed=0:01:39.80    \nframe=   43 fps=0.4 q=41.0 size=     256KiB time=00:00:01.36 bitrate=1534.8kbits/s speed=0.0136x elapsed=0:01:40.34    \nframe=   43 fps=0.4 q=41.0 size=     256KiB time=00:00:01.36 bitrate=1534.8kbits/s speed=0.0135x elapsed=0:01:40.87    \nframe=   43 fps=0.4 q=41.0 size=     256KiB time=00:00:01.36 bitrate=1534.8kbits/s speed=0.0135x elapsed=0:01:41.38    \nframe=   43 fps=0.4 q=41.0 size=     256KiB time=00:00:01.36 bitrate=1534.8kbits/s speed=0.0134x elapsed=0:01:41.90    \nframe=   43 fps=0.4 q=41.0 size=     256KiB time=00:00:01.36 bitrate=1534.8kbits/s speed=0.0133x elapsed=0:01:42.43    \nframe=   44 fps=0.4 q=42.9 size=     256KiB time=00:00:01.40 bitrate=1498.2kbits/s speed=0.0136x elapsed=0:01:42.97    \nframe=   44 fps=0.4 q=42.9 size=     256KiB time=00:00:01.40 bitrate=1498.2kbits/s speed=0.0135x elapsed=0:01:43.48    \nframe=   44 fps=0.4 q=42.9 size=     256KiB time=00:00:01.40 bitrate=1498.2kbits/s speed=0.0135x elapsed=0:01:44.01    \nframe=   44 fps=0.4 q=42.9 size=     256KiB time=00:00:01.40 bitrate=1498.2kbits/s speed=0.0134x elapsed=0:01:44.54    \nframe=   44 fps=0.4 q=42.9 size=     256KiB time=00:00:01.40 bitrate=1498.2kbits/s speed=0.0133x elapsed=0:01:45.05    \nframe=   45 fps=0.4 q=43.0 size=     256KiB time=00:00:01.43 bitrate=1463.4kbits/s speed=0.0136x elapsed=0:01:45.56    \nframe=   45 fps=0.4 q=43.0 size=     256KiB time=00:00:01.43 bitrate=1463.4kbits/s speed=0.0135x elapsed=0:01:46.09    \nframe=   45 fps=0.4 q=43.0 size=     256KiB time=00:00:01.43 bitrate=1463.4kbits/s speed=0.0134x elapsed=0:01:46.61    \nframe=   45 fps=0.4 q=43.0 size=     256KiB time=00:00:01.43 bitrate=1463.4kbits/s speed=0.0134x elapsed=0:01:47.13    \nframe=   47 fps=0.4 q=41.6 size=     256KiB time=00:00:01.50 bitrate=1398.3kbits/s speed=0.0139x elapsed=0:01:47.69    \nframe=   47 fps=0.4 q=41.6 size=     256KiB time=00:00:01.50 bitrate=1398.3kbits/s speed=0.0139x elapsed=0:01:48.23    \nframe=   48 fps=0.4 q=42.6 size=     256KiB time=00:00:01.53 bitrate=1367.9kbits/s speed=0.0141x elapsed=0:01:48.77    \nframe=   48 fps=0.4 q=42.6 size=     256KiB time=00:00:01.53 bitrate=1367.9kbits/s speed=0.014x elapsed=0:01:49.30    \nframe=   48 fps=0.4 q=42.6 size=     256KiB time=00:00:01.53 bitrate=1367.9kbits/s speed=0.014x elapsed=0:01:49.83    \nframe=   48 fps=0.4 q=42.6 size=     256KiB time=00:00:01.53 bitrate=1367.9kbits/s speed=0.0139x elapsed=0:01:50.37    \nframe=   48 fps=0.4 q=42.6 size=     256KiB time=00:00:01.53 bitrate=1367.9kbits/s speed=0.0138x elapsed=0:01:50.88    \nframe=   48 fps=0.4 q=42.6 size=     256KiB time=00:00:01.53 bitrate=1367.9kbits/s speed=0.0138x elapsed=0:01:51.41    \nframe=   49 fps=0.4 q=43.2 size=     256KiB time=00:00:01.56 bitrate=1338.8kbits/s speed=0.014x elapsed=0:01:51.94    \nframe=   49 fps=0.4 q=43.2 size=     256KiB time=00:00:01.56 bitrate=1338.8kbits/s speed=0.0139x elapsed=0:01:52.49    \nframe=   50 fps=0.4 q=42.6 size=     256KiB time=00:00:01.60 bitrate=1310.9kbits/s speed=0.0142x elapsed=0:01:53.00    \nframe=   50 fps=0.4 q=42.6 size=     256KiB time=00:00:01.60 bitrate=1310.9kbits/s speed=0.0141x elapsed=0:01:53.52    \nframe=   50 fps=0.4 q=42.6 size=     256KiB time=00:00:01.60 bitrate=1310.9kbits/s speed=0.014x elapsed=0:01:54.04    \nframe=   51 fps=0.4 q=37.9 size=     256KiB time=00:00:01.63 bitrate=1284.2kbits/s speed=0.0143x elapsed=0:01:54.56    \nframe=   51 fps=0.4 q=37.9 size=     256KiB time=00:00:01.63 bitrate=1284.2kbits/s speed=0.0142x elapsed=0:01:55.09    \nframe=   51 fps=0.4 q=37.9 size=     256KiB time=00:00:01.63 bitrate=1284.2kbits/s speed=0.0141x elapsed=0:01:55.61    \nframe=   51 fps=0.4 q=37.9 size=     256KiB time=00:00:01.63 bitrate=1284.2kbits/s speed=0.0141x elapsed=0:01:56.16    \nframe=   51 fps=0.4 q=37.9 size=     256KiB time=00:00:01.63 bitrate=1284.2kbits/s speed=0.014x elapsed=0:01:56.70    \nframe=   51 fps=0.4 q=37.9 size=     256KiB time=00:00:01.63 bitrate=1284.2kbits/s speed=0.0139x elapsed=0:01:57.24    \nframe=   51 fps=0.4 q=37.9 size=     256KiB time=00:00:01.63 bitrate=1284.2kbits/s speed=0.0139x elapsed=0:01:57.75    \nframe=   51 fps=0.4 q=37.9 size=     256KiB time=00:00:01.63 bitrate=1284.2kbits/s speed=0.0138x elapsed=0:01:58.29    \nframe=   52 fps=0.4 q=40.9 size=     256KiB time=00:00:01.66 bitrate=1258.5kbits/s speed=0.014x elapsed=0:01:58.82    \nframe=   52 fps=0.4 q=40.9 size=     256KiB time=00:00:01.66 bitrate=1258.5kbits/s speed=0.014x elapsed=0:01:59.35    \nframe=   52 fps=0.4 q=40.9 size=     256KiB time=00:00:01.66 bitrate=1258.5kbits/s speed=0.0139x elapsed=0:01:59.88    \nframe=   53 fps=0.4 q=43.1 size=     256KiB time=00:00:01.70 bitrate=1233.8kbits/s speed=0.0141x elapsed=0:02:00.41    \nframe=   53 fps=0.4 q=43.1 size=     256KiB time=00:00:01.70 bitrate=1233.8kbits/s speed=0.0141x elapsed=0:02:00.94    \nframe=   54 fps=0.4 q=37.8 size=     256KiB time=00:00:01.73 bitrate=1210.1kbits/s speed=0.0143x elapsed=0:02:01.46    \nframe=   54 fps=0.4 q=37.8 size=     256KiB time=00:00:01.73 bitrate=1210.1kbits/s speed=0.0142x elapsed=0:02:02.00    \nframe=   54 fps=0.4 q=37.8 size=     256KiB time=00:00:01.73 bitrate=1210.1kbits/s speed=0.0141x elapsed=0:02:02.52    \nframe=   54 fps=0.4 q=37.8 size=     256KiB time=00:00:01.73 bitrate=1210.1kbits/s speed=0.0141x elapsed=0:02:03.03    \nframe=   54 fps=0.4 q=37.8 size=     256KiB time=00:00:01.73 bitrate=1210.1kbits/s speed=0.014x elapsed=0:02:03.56    \nframe=   54 fps=0.4 q=37.8 size=     256KiB time=00:00:01.73 bitrate=1210.1kbits/s speed=0.014x elapsed=0:02:04.10    \nframe=   55 fps=0.4 q=42.4 size=     512KiB time=00:00:01.76 bitrate=2374.3kbits/s speed=0.0142x elapsed=0:02:04.61    \nframe=   56 fps=0.4 q=43.4 size=     512KiB time=00:00:01.80 bitrate=2330.4kbits/s speed=0.0144x elapsed=0:02:05.13    \nframe=   56 fps=0.4 q=43.4 size=     512KiB time=00:00:01.80 bitrate=2330.4kbits/s speed=0.0143x elapsed=0:02:05.66    \nframe=   56 fps=0.4 q=43.4 size=     512KiB time=00:00:01.80 bitrate=2330.4kbits/s speed=0.0143x elapsed=0:02:06.18    \nframe=   56 fps=0.4 q=43.4 size=     512KiB time=00:00:01.80 bitrate=2330.4kbits/s speed=0.0142x elapsed=0:02:06.73    \nframe=   56 fps=0.4 q=43.4 size=     512KiB time=00:00:01.80 bitrate=2330.4kbits/s speed=0.0141x elapsed=0:02:07.27    \nframe=   56 fps=0.4 q=43.4 size=     512KiB time=00:00:01.80 bitrate=2330.4kbits/s speed=0.0141x elapsed=0:02:07.80    \nframe=   56 fps=0.4 q=43.4 size=     512KiB time=00:00:01.80 bitrate=2330.4kbits/s speed=0.014x elapsed=0:02:08.37    \nframe=   57 fps=0.4 q=37.6 size=     512KiB time=00:00:01.83 bitrate=2288.0kbits/s speed=0.0142x elapsed=0:02:08.90    \nframe=   58 fps=0.4 q=40.9 size=     512KiB time=00:00:01.86 bitrate=2247.1kbits/s speed=0.0144x elapsed=0:02:09.41    \nframe=   58 fps=0.4 q=40.9 size=     512KiB time=00:00:01.86 bitrate=2247.1kbits/s speed=0.0144x elapsed=0:02:09.93    \nframe=   58 fps=0.4 q=40.9 size=     512KiB time=00:00:01.86 bitrate=2247.1kbits/s speed=0.0143x elapsed=0:02:10.44    \nframe=   58 fps=0.4 q=40.9 size=     512KiB time=00:00:01.86 bitrate=2247.1kbits/s speed=0.0143x elapsed=0:02:10.96    \nframe=   58 fps=0.4 q=40.9 size=     512KiB time=00:00:01.86 bitrate=2247.1kbits/s speed=0.0142x elapsed=0:02:11.48    \nframe=   58 fps=0.4 q=40.9 size=     512KiB time=00:00:01.86 bitrate=2247.1kbits/s speed=0.0141x elapsed=0:02:11.99    \nframe=   59 fps=0.4 q=42.9 size=     512KiB time=00:00:01.90 bitrate=2207.7kbits/s speed=0.0143x elapsed=0:02:12.56    \nframe=   60 fps=0.5 q=43.1 size=     512KiB time=00:00:01.93 bitrate=2169.7kbits/s speed=0.0145x elapsed=0:02:13.07    \nframe=   60 fps=0.4 q=43.1 size=     512KiB time=00:00:01.93 bitrate=2169.7kbits/s speed=0.0145x elapsed=0:02:13.59    \nframe=   60 fps=0.4 q=43.1 size=     512KiB time=00:00:01.93 bitrate=2169.7kbits/s speed=0.0144x elapsed=0:02:14.15    \nframe=   61 fps=0.5 q=38.6 size=     512KiB time=00:00:01.96 bitrate=2132.9kbits/s speed=0.0146x elapsed=0:02:14.67    \nframe=   61 fps=0.5 q=38.6 size=     512KiB time=00:00:01.96 bitrate=2132.9kbits/s speed=0.0145x elapsed=0:02:15.20    \nframe=   61 fps=0.4 q=38.6 size=     512KiB time=00:00:01.96 bitrate=2132.9kbits/s speed=0.0145x elapsed=0:02:15.72    \nframe=   62 fps=0.5 q=40.6 size=     512KiB time=00:00:02.00 bitrate=2097.3kbits/s speed=0.0147x elapsed=0:02:16.23    \nframe=   63 fps=0.5 q=43.7 size=     512KiB time=00:00:02.03 bitrate=2062.9kbits/s speed=0.0149x elapsed=0:02:16.75    \nframe=   63 fps=0.5 q=43.7 size=     512KiB time=00:00:02.03 bitrate=2062.9kbits/s speed=0.0148x elapsed=0:02:17.27    \nframe=   63 fps=0.5 q=43.7 size=     512KiB time=00:00:02.03 bitrate=2062.9kbits/s speed=0.0148x elapsed=0:02:17.81    \nframe=   63 fps=0.5 q=43.7 size=     512KiB time=00:00:02.03 bitrate=2062.9kbits/s speed=0.0147x elapsed=0:02:18.34    \nframe=   64 fps=0.5 q=43.8 size=     512KiB time=00:00:02.06 bitrate=2029.7kbits/s speed=0.0149x elapsed=0:02:18.86    \nframe=   64 fps=0.5 q=43.8 size=     512KiB time=00:00:02.06 bitrate=2029.7kbits/s speed=0.0148x elapsed=0:02:19.39    \nframe=   64 fps=0.5 q=43.8 size=     512KiB time=00:00:02.06 bitrate=2029.7kbits/s speed=0.0148x elapsed=0:02:19.93    \nframe=   65 fps=0.5 q=43.7 size=     512KiB time=00:00:02.10 bitrate=1997.5kbits/s speed=0.015x elapsed=0:02:20.45    \nframe=   65 fps=0.5 q=43.7 size=     512KiB time=00:00:02.10 bitrate=1997.5kbits/s speed=0.0149x elapsed=0:02:20.97    \nframe=   65 fps=0.5 q=43.7 size=     512KiB time=00:00:02.10 bitrate=1997.5kbits/s speed=0.0148x elapsed=0:02:21.51    \nframe=   65 fps=0.5 q=43.7 size=     512KiB time=00:00:02.10 bitrate=1997.5kbits/s speed=0.0148x elapsed=0:02:22.04    \nframe=   66 fps=0.5 q=38.1 size=     512KiB time=00:00:02.13 bitrate=1966.2kbits/s speed=0.015x elapsed=0:02:22.60    \nframe=   66 fps=0.5 q=38.1 size=     512KiB time=00:00:02.13 bitrate=1966.2kbits/s speed=0.0149x elapsed=0:02:23.13    \nframe=   67 fps=0.5 q=38.4 size=     512KiB time=00:00:02.16 bitrate=1936.0kbits/s speed=0.0151x elapsed=0:02:23.66    \nframe=   67 fps=0.5 q=38.4 size=     512KiB time=00:00:02.16 bitrate=1936.0kbits/s speed=0.015x elapsed=0:02:24.17    \nframe=   68 fps=0.5 q=42.7 size=     512KiB time=00:00:02.20 bitrate=1906.7kbits/s speed=0.0152x elapsed=0:02:24.71    \nframe=   68 fps=0.5 q=42.7 size=     512KiB time=00:00:02.20 bitrate=1906.7kbits/s speed=0.0151x elapsed=0:02:25.24    \nframe=   69 fps=0.5 q=44.3 size=     512KiB time=00:00:02.23 bitrate=1878.2kbits/s speed=0.0153x elapsed=0:02:25.79    \nframe=   70 fps=0.5 q=44.0 size=     512KiB time=00:00:02.26 bitrate=1850.6kbits/s speed=0.0155x elapsed=0:02:26.32    \nframe=   70 fps=0.5 q=44.0 size=     512KiB time=00:00:02.26 bitrate=1850.6kbits/s speed=0.0154x elapsed=0:02:26.83    \nframe=   70 fps=0.5 q=44.0 size=     512KiB time=00:00:02.26 bitrate=1850.6kbits/s speed=0.0154x elapsed=0:02:27.35    \nframe=   71 fps=0.5 q=43.9 size=     512KiB time=00:00:02.30 bitrate=1823.8kbits/s speed=0.0156x elapsed=0:02:27.89    \nframe=   71 fps=0.5 q=43.9 size=     512KiB time=00:00:02.30 bitrate=1823.8kbits/s speed=0.0155x elapsed=0:02:28.39    \nframe=   72 fps=0.5 q=37.8 size=     512KiB time=00:00:02.33 bitrate=1797.7kbits/s speed=0.0157x elapsed=0:02:28.91    \nframe=   72 fps=0.5 q=37.8 size=     512KiB time=00:00:02.33 bitrate=1797.7kbits/s speed=0.0156x elapsed=0:02:29.45    \nframe=   72 fps=0.5 q=37.8 size=     512KiB time=00:00:02.33 bitrate=1797.7kbits/s speed=0.0156x elapsed=0:02:29.98    \nframe=   73 fps=0.5 q=41.3 size=     512KiB time=00:00:02.36 bitrate=1772.4kbits/s speed=0.0157x elapsed=0:02:30.51    \nframe=   73 fps=0.5 q=41.3 size=     512KiB time=00:00:02.36 bitrate=1772.4kbits/s speed=0.0157x elapsed=0:02:31.05    \nframe=   73 fps=0.5 q=41.3 size=     512KiB time=00:00:02.36 bitrate=1772.4kbits/s speed=0.0156x elapsed=0:02:31.57    \nframe=   73 fps=0.5 q=41.3 size=     512KiB time=00:00:02.36 bitrate=1772.4kbits/s speed=0.0156x elapsed=0:02:32.11    \nframe=   73 fps=0.5 q=41.3 size=     512KiB time=00:00:02.36 bitrate=1772.4kbits/s speed=0.0155x elapsed=0:02:32.66    \nframe=   73 fps=0.5 q=41.3 size=     512KiB time=00:00:02.36 bitrate=1772.4kbits/s speed=0.0154x elapsed=0:02:33.18    \nframe=   74 fps=0.5 q=43.4 size=     512KiB time=00:00:02.40 bitrate=1747.8kbits/s speed=0.0156x elapsed=0:02:33.70    \nframe=   74 fps=0.5 q=43.4 size=     512KiB time=00:00:02.40 bitrate=1747.8kbits/s speed=0.0156x elapsed=0:02:34.21    \nframe=   74 fps=0.5 q=43.4 size=     512KiB time=00:00:02.40 bitrate=1747.8kbits/s speed=0.0155x elapsed=0:02:34.72    \nframe=   75 fps=0.5 q=43.6 size=     512KiB time=00:00:02.43 bitrate=1723.8kbits/s speed=0.0157x elapsed=0:02:35.24    \nframe=   75 fps=0.5 q=43.6 size=     512KiB time=00:00:02.43 bitrate=1723.8kbits/s speed=0.0156x elapsed=0:02:35.76    \nframe=   75 fps=0.5 q=43.6 size=     512KiB time=00:00:02.43 bitrate=1723.8kbits/s speed=0.0156x elapsed=0:02:36.29    \nframe=   76 fps=0.5 q=38.1 size=     512KiB time=00:00:02.46 bitrate=1700.5kbits/s speed=0.0157x elapsed=0:02:36.82    \nframe=   76 fps=0.5 q=38.1 size=     512KiB time=00:00:02.46 bitrate=1700.5kbits/s speed=0.0157x elapsed=0:02:37.51    \nframe=   76 fps=0.5 q=38.1 size=     512KiB time=00:00:02.46 bitrate=1700.5kbits/s speed=0.0156x elapsed=0:02:38.05    \nframe=   76 fps=0.5 q=38.1 size=     512KiB time=00:00:02.46 bitrate=1700.5kbits/s speed=0.0156x elapsed=0:02:38.60    \nframe=   76 fps=0.5 q=38.1 size=     512KiB time=00:00:02.46 bitrate=1700.5kbits/s speed=0.0155x elapsed=0:02:39.12    \nframe=   77 fps=0.5 q=41.2 size=     768KiB time=00:00:02.50 bitrate=2516.7kbits/s speed=0.0157x elapsed=0:02:39.64    \nframe=   77 fps=0.5 q=41.2 size=     768KiB time=00:00:02.50 bitrate=2516.7kbits/s speed=0.0156x elapsed=0:02:40.18    \nframe=   78 fps=0.5 q=44.0 size=     768KiB time=00:00:02.53 bitrate=2483.6kbits/s speed=0.0158x elapsed=0:02:40.70    \nframe=   78 fps=0.5 q=44.0 size=     768KiB time=00:00:02.53 bitrate=2483.6kbits/s speed=0.0157x elapsed=0:02:41.23    \nframe=   78 fps=0.5 q=44.0 size=     768KiB time=00:00:02.53 bitrate=2483.6kbits/s speed=0.0157x elapsed=0:02:41.77    \nframe=   78 fps=0.5 q=44.0 size=     768KiB time=00:00:02.53 bitrate=2483.6kbits/s speed=0.0156x elapsed=0:02:42.29    \nframe=   78 fps=0.5 q=44.0 size=     768KiB time=00:00:02.53 bitrate=2483.6kbits/s speed=0.0156x elapsed=0:02:42.83    \nframe=   78 fps=0.5 q=44.0 size=     768KiB time=00:00:02.53 bitrate=2483.6kbits/s speed=0.0155x elapsed=0:02:43.36    \nframe=   79 fps=0.5 q=43.8 size=     768KiB time=00:00:02.56 bitrate=2451.4kbits/s speed=0.0157x elapsed=0:02:43.89    \nframe=   79 fps=0.5 q=43.8 size=     768KiB time=00:00:02.56 bitrate=2451.4kbits/s speed=0.0156x elapsed=0:02:44.42    \nframe=   79 fps=0.5 q=43.8 size=     768KiB time=00:00:02.56 bitrate=2451.4kbits/s speed=0.0156x elapsed=0:02:44.96    \nframe=   80 fps=0.5 q=44.0 size=     768KiB time=00:00:02.60 bitrate=2419.9kbits/s speed=0.0157x elapsed=0:02:45.49    \nframe=   81 fps=0.5 q=38.1 size=     768KiB time=00:00:02.63 bitrate=2389.3kbits/s speed=0.0159x elapsed=0:02:46.02    \nframe=   81 fps=0.5 q=38.1 size=     768KiB time=00:00:02.63 bitrate=2389.3kbits/s speed=0.0158x elapsed=0:02:46.55    \nframe=   81 fps=0.5 q=38.1 size=     768KiB time=00:00:02.63 bitrate=2389.3kbits/s speed=0.0158x elapsed=0:02:47.07    \nframe=   81 fps=0.5 q=38.1 size=     768KiB time=00:00:02.63 bitrate=2389.3kbits/s speed=0.0157x elapsed=0:02:47.59    \nframe=   81 fps=0.5 q=38.1 size=     768KiB time=00:00:02.63 bitrate=2389.3kbits/s speed=0.0157x elapsed=0:02:48.13    \nframe=   82 fps=0.5 q=41.7 size=     768KiB time=00:00:02.66 bitrate=2359.4kbits/s speed=0.0158x elapsed=0:02:48.66    \nframe=   82 fps=0.5 q=41.7 size=     768KiB time=00:00:02.66 bitrate=2359.4kbits/s speed=0.0158x elapsed=0:02:49.18    \nframe=   83 fps=0.5 q=43.9 size=     768KiB time=00:00:02.70 bitrate=2330.3kbits/s speed=0.0159x elapsed=0:02:49.71    \nframe=   83 fps=0.5 q=43.9 size=     768KiB time=00:00:02.70 bitrate=2330.3kbits/s speed=0.0159x elapsed=0:02:50.23    \nframe=   83 fps=0.5 q=43.9 size=     768KiB time=00:00:02.70 bitrate=2330.3kbits/s speed=0.0158x elapsed=0:02:50.77    \nframe=   83 fps=0.5 q=43.9 size=     768KiB time=00:00:02.70 bitrate=2330.3kbits/s speed=0.0158x elapsed=0:02:51.30    \nframe=   83 fps=0.5 q=43.9 size=     768KiB time=00:00:02.70 bitrate=2330.3kbits/s speed=0.0157x elapsed=0:02:51.82    \nframe=   84 fps=0.5 q=44.0 size=     768KiB time=00:00:02.73 bitrate=2301.9kbits/s speed=0.0159x elapsed=0:02:52.37    \nframe=   84 fps=0.5 q=44.0 size=     768KiB time=00:00:02.73 bitrate=2301.9kbits/s speed=0.0158x elapsed=0:02:52.91    \nframe=   84 fps=0.5 q=44.0 size=     768KiB time=00:00:02.73 bitrate=2301.9kbits/s speed=0.0158x elapsed=0:02:53.43    \nframe=   85 fps=0.5 q=38.6 size=     768KiB time=00:00:02.76 bitrate=2274.1kbits/s speed=0.0159x elapsed=0:02:53.96    \nframe=   85 fps=0.5 q=38.6 size=     768KiB time=00:00:02.76 bitrate=2274.1kbits/s speed=0.0159x elapsed=0:02:54.48    \nframe=   85 fps=0.5 q=38.6 size=     768KiB time=00:00:02.76 bitrate=2274.1kbits/s speed=0.0158x elapsed=0:02:55.03    \nframe=   86 fps=0.5 q=39.5 size=     768KiB time=00:00:02.80 bitrate=2247.1kbits/s speed=0.0159x elapsed=0:02:55.55    \nframe=   86 fps=0.5 q=39.5 size=     768KiB time=00:00:02.80 bitrate=2247.1kbits/s speed=0.0159x elapsed=0:02:56.10    \nframe=   86 fps=0.5 q=39.5 size=     768KiB time=00:00:02.80 bitrate=2247.1kbits/s speed=0.0159x elapsed=0:02:56.63    \nframe=   87 fps=0.5 q=44.2 size=     768KiB time=00:00:02.83 bitrate=2220.6kbits/s speed=0.016x elapsed=0:02:57.15    \nframe=   87 fps=0.5 q=44.2 size=     768KiB time=00:00:02.83 bitrate=2220.6kbits/s speed=0.0159x elapsed=0:02:57.68    \nframe=   87 fps=0.5 q=44.2 size=     768KiB time=00:00:02.83 bitrate=2220.6kbits/s speed=0.0159x elapsed=0:02:58.19    \nframe=   87 fps=0.5 q=44.2 size=     768KiB time=00:00:02.83 bitrate=2220.6kbits/s speed=0.0159x elapsed=0:02:58.72    \nframe=   87 fps=0.5 q=44.2 size=     768KiB time=00:00:02.83 bitrate=2220.6kbits/s speed=0.0158x elapsed=0:02:59.26    \nframe=   88 fps=0.5 q=44.2 size=     768KiB time=00:00:02.86 bitrate=2194.8kbits/s speed=0.0159x elapsed=0:02:59.79    \nframe=   89 fps=0.5 q=44.6 size=     768KiB time=00:00:02.90 bitrate=2169.6kbits/s speed=0.0161x elapsed=0:03:00.32    \nframe=   89 fps=0.5 q=44.6 size=     768KiB time=00:00:02.90 bitrate=2169.6kbits/s speed=0.016x elapsed=0:03:00.83    \nframe=   89 fps=0.5 q=44.6 size=     768KiB time=00:00:02.90 bitrate=2169.6kbits/s speed=0.016x elapsed=0:03:01.35    \nframe=   89 fps=0.5 q=44.6 size=     768KiB time=00:00:02.90 bitrate=2169.6kbits/s speed=0.0159x elapsed=0:03:01.87    \nframe=   90 fps=0.5 q=38.2 size=     768KiB time=00:00:02.93 bitrate=2144.9kbits/s speed=0.0161x elapsed=0:03:02.39    \nframe=   90 fps=0.5 q=38.2 size=     768KiB time=00:00:02.93 bitrate=2144.9kbits/s speed=0.016x elapsed=0:03:02.93    \nframe=   90 fps=0.5 q=38.2 size=     768KiB time=00:00:02.93 bitrate=2144.9kbits/s speed=0.016x elapsed=0:03:03.47    \nframe=   90 fps=0.5 q=38.2 size=     768KiB time=00:00:02.93 bitrate=2144.9kbits/s speed=0.0159x elapsed=0:03:03.99    \nframe=   90 fps=0.5 q=38.2 size=     768KiB time=00:00:02.93 bitrate=2144.9kbits/s speed=0.0159x elapsed=0:03:04.52    \nframe=   91 fps=0.5 q=41.7 size=     768KiB time=00:00:02.96 bitrate=2120.8kbits/s speed=0.016x elapsed=0:03:05.06    \nframe=   91 fps=0.5 q=41.7 size=     768KiB time=00:00:02.96 bitrate=2120.8kbits/s speed=0.016x elapsed=0:03:05.58    \nframe=   91 fps=0.5 q=41.7 size=     768KiB time=00:00:02.96 bitrate=2120.8kbits/s speed=0.0159x elapsed=0:03:06.10    \nframe=   91 fps=0.5 q=41.7 size=     768KiB time=00:00:02.96 bitrate=2120.8kbits/s speed=0.0159x elapsed=0:03:06.63    \nframe=   92 fps=0.5 q=44.4 size=     768KiB time=00:00:03.00 bitrate=2097.3kbits/s speed=0.016x elapsed=0:03:07.15    \nframe=   92 fps=0.5 q=44.4 size=     768KiB time=00:00:03.00 bitrate=2097.3kbits/s speed=0.016x elapsed=0:03:07.66    \nframe=   93 fps=0.5 q=44.5 size=     768KiB time=00:00:03.03 bitrate=2074.2kbits/s speed=0.0161x elapsed=0:03:08.18    \nframe=   93 fps=0.5 q=44.5 size=     768KiB time=00:00:03.03 bitrate=2074.2kbits/s speed=0.0161x elapsed=0:03:08.71    \nframe=   94 fps=0.5 q=38.5 size=     768KiB time=00:00:03.06 bitrate=2051.7kbits/s speed=0.0162x elapsed=0:03:09.25    \nframe=   94 fps=0.5 q=38.5 size=     768KiB time=00:00:03.06 bitrate=2051.7kbits/s speed=0.0162x elapsed=0:03:09.81    \nframe=   94 fps=0.5 q=38.5 size=     768KiB time=00:00:03.06 bitrate=2051.7kbits/s speed=0.0161x elapsed=0:03:10.36    \nframe=   94 fps=0.5 q=38.5 size=     768KiB time=00:00:03.06 bitrate=2051.7kbits/s speed=0.0161x elapsed=0:03:10.91    \nframe=   94 fps=0.5 q=38.5 size=     768KiB time=00:00:03.06 bitrate=2051.7kbits/s speed=0.016x elapsed=0:03:11.44    \nframe=   95 fps=0.5 q=41.5 size=     768KiB time=00:00:03.10 bitrate=2029.6kbits/s speed=0.0161x elapsed=0:03:11.96    \nframe=   96 fps=0.5 q=44.1 size=     768KiB time=00:00:03.13 bitrate=2008.0kbits/s speed=0.0163x elapsed=0:03:12.48    \nframe=   96 fps=0.5 q=44.1 size=     768KiB time=00:00:03.13 bitrate=2008.0kbits/s speed=0.0162x elapsed=0:03:13.00    \nframe=   97 fps=0.5 q=44.4 size=     768KiB time=00:00:03.16 bitrate=1986.9kbits/s speed=0.0164x elapsed=0:03:13.52    \nframe=   97 fps=0.5 q=44.4 size=     768KiB time=00:00:03.16 bitrate=1986.9kbits/s speed=0.0163x elapsed=0:03:14.05    \nframe=   98 fps=0.5 q=44.4 size=     768KiB time=00:00:03.20 bitrate=1966.2kbits/s speed=0.0164x elapsed=0:03:14.56    \nframe=   98 fps=0.5 q=44.4 size=     768KiB time=00:00:03.20 bitrate=1966.2kbits/s speed=0.0164x elapsed=0:03:15.11    \nframe=   98 fps=0.5 q=44.4 size=     768KiB time=00:00:03.20 bitrate=1966.2kbits/s speed=0.0164x elapsed=0:03:15.64    \nframe=   99 fps=0.5 q=38.4 size=     768KiB time=00:00:03.23 bitrate=1945.9kbits/s speed=0.0165x elapsed=0:03:16.16    \nframe=  100 fps=0.5 q=42.0 size=     768KiB time=00:00:03.26 bitrate=1926.1kbits/s speed=0.0166x elapsed=0:03:16.68    \nframe=  100 fps=0.5 q=42.0 size=     768KiB time=00:00:03.26 bitrate=1926.1kbits/s speed=0.0166x elapsed=0:03:17.21    \nframe=  100 fps=0.5 q=42.0 size=     768KiB time=00:00:03.26 bitrate=1926.1kbits/s speed=0.0165x elapsed=0:03:17.72    \nframe=  100 fps=0.5 q=42.0 size=     768KiB time=00:00:03.26 bitrate=1926.1kbits/s speed=0.0165x elapsed=0:03:18.23    \nframe=  100 fps=0.5 q=42.0 size=     768KiB time=00:00:03.26 bitrate=1926.1kbits/s speed=0.0164x elapsed=0:03:18.78    \nframe=  100 fps=0.5 q=42.0 size=     768KiB time=00:00:03.26 bitrate=1926.1kbits/s speed=0.0164x elapsed=0:03:19.33    \nframe=  101 fps=0.5 q=44.6 size=     768KiB time=00:00:03.30 bitrate=1906.6kbits/s speed=0.0165x elapsed=0:03:19.87    \nframe=  101 fps=0.5 q=44.6 size=     768KiB time=00:00:03.30 bitrate=1906.6kbits/s speed=0.0165x elapsed=0:03:20.42    \nframe=  102 fps=0.5 q=44.6 size=     768KiB time=00:00:03.33 bitrate=1887.5kbits/s speed=0.0166x elapsed=0:03:21.01    \nframe=  102 fps=0.5 q=44.6 size=     768KiB time=00:00:03.33 bitrate=1887.5kbits/s speed=0.0165x elapsed=0:03:21.55    \nframe=  102 fps=0.5 q=44.6 size=     768KiB time=00:00:03.33 bitrate=1887.5kbits/s speed=0.0165x elapsed=0:03:22.11    \nframe=  102 fps=0.5 q=44.6 size=     768KiB time=00:00:03.33 bitrate=1887.5kbits/s speed=0.0164x elapsed=0:03:22.65    \nframe=  102 fps=0.5 q=44.6 size=     768KiB time=00:00:03.33 bitrate=1887.5kbits/s speed=0.0164x elapsed=0:03:23.19    \nframe=  103 fps=0.5 q=38.4 size=     768KiB time=00:00:03.36 bitrate=1868.9kbits/s speed=0.0165x elapsed=0:03:23.70    \nframe=  103 fps=0.5 q=38.4 size=     768KiB time=00:00:03.36 bitrate=1868.9kbits/s speed=0.0165x elapsed=0:03:24.24    \nframe=  103 fps=0.5 q=38.4 size=     768KiB time=00:00:03.36 bitrate=1868.9kbits/s speed=0.0164x elapsed=0:03:24.75    \nframe=  104 fps=0.5 q=41.8 size=    1024KiB time=00:00:03.40 bitrate=2467.3kbits/s speed=0.0166x elapsed=0:03:25.27    \nframe=  105 fps=0.5 q=44.6 size=    1024KiB time=00:00:03.43 bitrate=2443.4kbits/s speed=0.0167x elapsed=0:03:25.81    \nframe=  105 fps=0.5 q=44.6 size=    1024KiB time=00:00:03.43 bitrate=2443.4kbits/s speed=0.0166x elapsed=0:03:26.33    \nframe=  105 fps=0.5 q=44.6 size=    1024KiB time=00:00:03.43 bitrate=2443.4kbits/s speed=0.0166x elapsed=0:03:26.89    \nframe=  106 fps=0.5 q=44.5 size=    1024KiB time=00:00:03.46 bitrate=2419.9kbits/s speed=0.0167x elapsed=0:03:27.42    \nframe=  107 fps=0.5 q=44.7 size=    1024KiB time=00:00:03.50 bitrate=2396.8kbits/s speed=0.0168x elapsed=0:03:27.92    \nframe=  107 fps=0.5 q=44.7 size=    1024KiB time=00:00:03.50 bitrate=2396.8kbits/s speed=0.0168x elapsed=0:03:28.45    \nframe=  108 fps=0.5 q=38.5 size=    1024KiB time=00:00:03.53 bitrate=2374.2kbits/s speed=0.0169x elapsed=0:03:28.98    \nframe=  109 fps=0.5 q=42.4 size=    1024KiB time=00:00:03.56 bitrate=2352.0kbits/s speed=0.017x elapsed=0:03:29.50    \nframe=  109 fps=0.5 q=42.4 size=    1024KiB time=00:00:03.56 bitrate=2352.0kbits/s speed=0.017x elapsed=0:03:30.03    \nframe=  109 fps=0.5 q=42.4 size=    1024KiB time=00:00:03.56 bitrate=2352.0kbits/s speed=0.0169x elapsed=0:03:30.56    \nframe=  110 fps=0.5 q=44.3 size=    1024KiB time=00:00:03.60 bitrate=2330.3kbits/s speed=0.0171x elapsed=0:03:31.06    \nframe=  110 fps=0.5 q=44.3 size=    1024KiB time=00:00:03.60 bitrate=2330.3kbits/s speed=0.017x elapsed=0:03:31.58    \nframe=  111 fps=0.5 q=38.7 size=    1024KiB time=00:00:03.63 bitrate=2308.9kbits/s speed=0.0171x elapsed=0:03:32.10    \nframe=  111 fps=0.5 q=38.7 size=    1024KiB time=00:00:03.63 bitrate=2308.9kbits/s speed=0.0171x elapsed=0:03:32.61    \nframe=  112 fps=0.5 q=42.1 size=    1024KiB time=00:00:03.66 bitrate=2287.9kbits/s speed=0.0172x elapsed=0:03:33.13    \nframe=  112 fps=0.5 q=42.1 size=    1024KiB time=00:00:03.66 bitrate=2287.9kbits/s speed=0.0172x elapsed=0:03:33.65    \nframe=  113 fps=0.5 q=44.4 size=    1024KiB time=00:00:03.70 bitrate=2267.3kbits/s speed=0.0173x elapsed=0:03:34.19    \nframe=  113 fps=0.5 q=44.4 size=    1024KiB time=00:00:03.70 bitrate=2267.3kbits/s speed=0.0172x elapsed=0:03:34.70    \nframe=  113 fps=0.5 q=44.4 size=    1024KiB time=00:00:03.70 bitrate=2267.3kbits/s speed=0.0172x elapsed=0:03:35.22    \nframe=  113 fps=0.5 q=44.4 size=    1024KiB time=00:00:03.70 bitrate=2267.3kbits/s speed=0.0171x elapsed=0:03:35.75    \nframe=  114 fps=0.5 q=38.7 size=    1024KiB time=00:00:03.73 bitrate=2247.0kbits/s speed=0.0173x elapsed=0:03:36.30    \nframe=  114 fps=0.5 q=38.7 size=    1024KiB time=00:00:03.73 bitrate=2247.0kbits/s speed=0.0172x elapsed=0:03:36.83    \nframe=  114 fps=0.5 q=38.7 size=    1024KiB time=00:00:03.73 bitrate=2247.0kbits/s speed=0.0172x elapsed=0:03:37.34    \nframe=  114 fps=0.5 q=38.7 size=    1024KiB time=00:00:03.73 bitrate=2247.0kbits/s speed=0.0171x elapsed=0:03:37.84    \nframe=  114 fps=0.5 q=38.7 size=    1024KiB time=00:00:03.73 bitrate=2247.0kbits/s speed=0.0171x elapsed=0:03:38.37    \nframe=  114 fps=0.5 q=38.7 size=    1024KiB time=00:00:03.73 bitrate=2247.0kbits/s speed=0.0171x elapsed=0:03:38.87    \nframe=  115 fps=0.5 q=43.5 size=    1024KiB time=00:00:03.76 bitrate=2227.2kbits/s speed=0.0172x elapsed=0:03:39.40    \nframe=  115 fps=0.5 q=43.5 size=    1024KiB time=00:00:03.76 bitrate=2227.2kbits/s speed=0.0171x elapsed=0:03:39.91    \nframe=  115 fps=0.5 q=43.5 size=    1024KiB time=00:00:03.76 bitrate=2227.2kbits/s speed=0.0171x elapsed=0:03:40.42    \nframe=  116 fps=0.5 q=44.6 size=    1024KiB time=00:00:03.80 bitrate=2207.6kbits/s speed=0.0172x elapsed=0:03:40.95    \nframe=  116 fps=0.5 q=44.6 size=    1024KiB time=00:00:03.80 bitrate=2207.6kbits/s speed=0.0172x elapsed=0:03:41.47    \nframe=  117 fps=0.5 q=38.5 size=    1024KiB time=00:00:03.83 bitrate=2188.4kbits/s speed=0.0173x elapsed=0:03:41.99    \nframe=  117 fps=0.5 q=38.5 size=    1024KiB time=00:00:03.83 bitrate=2188.4kbits/s speed=0.0172x elapsed=0:03:42.52    \nframe=  118 fps=0.5 q=41.9 size=    1024KiB time=00:00:03.86 bitrate=2169.6kbits/s speed=0.0173x elapsed=0:03:43.03    \nframe=  118 fps=0.5 q=41.9 size=    1024KiB time=00:00:03.86 bitrate=2169.6kbits/s speed=0.0173x elapsed=0:03:43.56    \nframe=  118 fps=0.5 q=41.9 size=    1024KiB time=00:00:03.86 bitrate=2169.6kbits/s speed=0.0173x elapsed=0:03:44.08    \nframe=  119 fps=0.5 q=44.3 size=    1024KiB time=00:00:03.90 bitrate=2151.0kbits/s speed=0.0174x elapsed=0:03:44.59    \nframe=  119 fps=0.5 q=44.3 size=    1024KiB time=00:00:03.90 bitrate=2151.0kbits/s speed=0.0173x elapsed=0:03:45.11    \nframe=  120 fps=0.5 q=43.8 size=    1024KiB time=00:00:03.93 bitrate=2132.8kbits/s speed=0.0174x elapsed=0:03:45.64    \nframe=  120 fps=0.5 q=43.8 size=    1024KiB time=00:00:03.93 bitrate=2132.8kbits/s speed=0.0174x elapsed=0:03:46.16    \nframe=  120 fps=0.5 q=43.8 size=    1024KiB time=00:00:03.93 bitrate=2132.8kbits/s speed=0.0174x elapsed=0:03:46.68    \nframe=  120 fps=0.5 q=43.8 size=    1024KiB time=00:00:03.93 bitrate=2132.8kbits/s speed=0.0173x elapsed=0:03:47.19    \nframe=  121 fps=0.5 q=38.3 size=    1024KiB time=00:00:03.96 bitrate=2114.9kbits/s speed=0.0174x elapsed=0:03:47.71    \nframe=  122 fps=0.5 q=41.1 size=    1024KiB time=00:00:04.00 bitrate=2097.2kbits/s speed=0.0175x elapsed=0:03:48.22    \nframe=  122 fps=0.5 q=41.1 size=    1024KiB time=00:00:04.00 bitrate=2097.2kbits/s speed=0.0175x elapsed=0:03:48.74    \nframe=  122 fps=0.5 q=41.1 size=    1024KiB time=00:00:04.00 bitrate=2097.2kbits/s speed=0.0174x elapsed=0:03:49.27    \nframe=  123 fps=0.5 q=44.1 size=    1024KiB time=00:00:04.03 bitrate=2079.9kbits/s speed=0.0176x elapsed=0:03:49.78    \nframe=  123 fps=0.5 q=44.1 size=    1024KiB time=00:00:04.03 bitrate=2079.9kbits/s speed=0.0175x elapsed=0:03:50.30    \nframe=  124 fps=0.5 q=43.9 size=    1024KiB time=00:00:04.06 bitrate=2062.9kbits/s speed=0.0176x elapsed=0:03:50.82    \nframe=  125 fps=0.5 q=43.7 size=    1024KiB time=00:00:04.10 bitrate=2046.1kbits/s speed=0.0177x elapsed=0:03:51.33    \nframe=  125 fps=0.5 q=43.7 size=    1024KiB time=00:00:04.10 bitrate=2046.1kbits/s speed=0.0177x elapsed=0:03:51.84    \nframe=  126 fps=0.5 q=38.4 size=    1024KiB time=00:00:04.13 bitrate=2029.6kbits/s speed=0.0178x elapsed=0:03:52.37    \nframe=  126 fps=0.5 q=38.4 size=    1024KiB time=00:00:04.13 bitrate=2029.6kbits/s speed=0.0177x elapsed=0:03:52.89    \nframe=  126 fps=0.5 q=38.4 size=    1024KiB time=00:00:04.13 bitrate=2029.6kbits/s speed=0.0177x elapsed=0:03:53.41    \nframe=  127 fps=0.5 q=41.9 size=    1024KiB time=00:00:04.16 bitrate=2013.4kbits/s speed=0.0178x elapsed=0:03:53.94    \nframe=  127 fps=0.5 q=41.9 size=    1024KiB time=00:00:04.16 bitrate=2013.4kbits/s speed=0.0178x elapsed=0:03:54.47    \nframe=  128 fps=0.5 q=43.9 size=    1024KiB time=00:00:04.20 bitrate=1997.4kbits/s speed=0.0179x elapsed=0:03:54.99    \nframe=  129 fps=0.5 q=38.0 size=    1280KiB time=00:00:04.23 bitrate=2477.0kbits/s speed=0.018x elapsed=0:03:55.51    \nframe=  129 fps=0.5 q=38.0 size=    1280KiB time=00:00:04.23 bitrate=2477.0kbits/s speed=0.0179x elapsed=0:03:56.02    \nframe=  129 fps=0.5 q=38.0 size=    1280KiB time=00:00:04.23 bitrate=2477.0kbits/s speed=0.0179x elapsed=0:03:56.55    \nframe=  130 fps=0.5 q=41.3 size=    1280KiB time=00:00:04.26 bitrate=2457.7kbits/s speed=0.018x elapsed=0:03:57.11    \nframe=  130 fps=0.5 q=41.3 size=    1280KiB time=00:00:04.26 bitrate=2457.7kbits/s speed=0.018x elapsed=0:03:57.64    \nframe=  131 fps=0.5 q=43.1 size=    1280KiB time=00:00:04.30 bitrate=2438.6kbits/s speed=0.0181x elapsed=0:03:58.18    \nframe=  131 fps=0.5 q=43.1 size=    1280KiB time=00:00:04.30 bitrate=2438.6kbits/s speed=0.018x elapsed=0:03:58.70    \nframe=  131 fps=0.5 q=43.1 size=    1280KiB time=00:00:04.30 bitrate=2438.6kbits/s speed=0.018x elapsed=0:03:59.22    \nframe=  131 fps=0.5 q=43.1 size=    1280KiB time=00:00:04.30 bitrate=2438.6kbits/s speed=0.0179x elapsed=0:03:59.78    \nframe=  132 fps=0.5 q=43.3 size=    1280KiB time=00:00:04.33 bitrate=2419.9kbits/s speed=0.018x elapsed=0:04:00.29    \nframe=  132 fps=0.5 q=43.3 size=    1280KiB time=00:00:04.33 bitrate=2419.9kbits/s speed=0.018x elapsed=0:04:00.80    \nframe=  132 fps=0.5 q=43.3 size=    1280KiB time=00:00:04.33 bitrate=2419.9kbits/s speed=0.018x elapsed=0:04:01.32    \nframe=  133 fps=0.5 q=38.2 size=    1280KiB time=00:00:04.36 bitrate=2401.4kbits/s speed=0.0181x elapsed=0:04:01.83    \nframe=  133 fps=0.5 q=38.2 size=    1280KiB time=00:00:04.36 bitrate=2401.4kbits/s speed=0.018x elapsed=0:04:02.35    \nframe=  133 fps=0.5 q=38.2 size=    1280KiB time=00:00:04.36 bitrate=2401.4kbits/s speed=0.018x elapsed=0:04:02.86    \nframe=  134 fps=0.6 q=38.7 size=    1280KiB time=00:00:04.40 bitrate=2383.2kbits/s speed=0.0181x elapsed=0:04:03.40    \nframe=  135 fps=0.6 q=44.0 size=    1280KiB time=00:00:04.43 bitrate=2365.3kbits/s speed=0.0182x elapsed=0:04:03.92    \nframe=  135 fps=0.6 q=44.0 size=    1280KiB time=00:00:04.43 bitrate=2365.3kbits/s speed=0.0181x elapsed=0:04:04.44    \nframe=  136 fps=0.6 q=43.6 size=    1280KiB time=00:00:04.46 bitrate=2347.6kbits/s speed=0.0182x elapsed=0:04:04.97    \nframe=  136 fps=0.6 q=43.6 size=    1280KiB time=00:00:04.46 bitrate=2347.6kbits/s speed=0.0182x elapsed=0:04:05.49    \nframe=  136 fps=0.6 q=43.6 size=    1280KiB time=00:00:04.46 bitrate=2347.6kbits/s speed=0.0182x elapsed=0:04:06.02    \nframe=  137 fps=0.6 q=44.1 size=    1280KiB time=00:00:04.50 bitrate=2330.2kbits/s speed=0.0183x elapsed=0:04:06.54    \nframe=  138 fps=0.6 q=38.5 size=    1280KiB time=00:00:04.53 bitrate=2313.1kbits/s speed=0.0183x elapsed=0:04:07.05    \nframe=  138 fps=0.6 q=38.5 size=    1280KiB time=00:00:04.53 bitrate=2313.1kbits/s speed=0.0183x elapsed=0:04:07.56    \nframe=  138 fps=0.6 q=38.5 size=    1280KiB time=00:00:04.53 bitrate=2313.1kbits/s speed=0.0183x elapsed=0:04:08.08    \nframe=  138 fps=0.6 q=38.5 size=    1280KiB time=00:00:04.53 bitrate=2313.1kbits/s speed=0.0182x elapsed=0:04:08.61    \nframe=  139 fps=0.6 q=41.7 size=    1280KiB time=00:00:04.56 bitrate=2296.2kbits/s speed=0.0183x elapsed=0:04:09.14    \nframe=  139 fps=0.6 q=41.7 size=    1280KiB time=00:00:04.56 bitrate=2296.2kbits/s speed=0.0183x elapsed=0:04:09.69    \nframe=  139 fps=0.6 q=41.7 size=    1280KiB time=00:00:04.56 bitrate=2296.2kbits/s speed=0.0183x elapsed=0:04:10.19    \nframe=  140 fps=0.6 q=44.2 size=    1280KiB time=00:00:04.60 bitrate=2279.6kbits/s speed=0.0183x elapsed=0:04:10.71    \nframe=  140 fps=0.6 q=44.2 size=    1280KiB time=00:00:04.60 bitrate=2279.6kbits/s speed=0.0183x elapsed=0:04:11.23    \nframe=  141 fps=0.6 q=44.5 size=    1280KiB time=00:00:04.63 bitrate=2263.2kbits/s speed=0.0184x elapsed=0:04:11.77    \nframe=  141 fps=0.6 q=44.5 size=    1280KiB time=00:00:04.63 bitrate=2263.2kbits/s speed=0.0184x elapsed=0:04:12.30    \nframe=  141 fps=0.6 q=44.5 size=    1280KiB time=00:00:04.63 bitrate=2263.2kbits/s speed=0.0183x elapsed=0:04:12.84    \nframe=  142 fps=0.6 q=39.4 size=    1280KiB time=00:00:04.66 bitrate=2247.0kbits/s speed=0.0184x elapsed=0:04:13.35    \nframe=  142 fps=0.6 q=39.4 size=    1280KiB time=00:00:04.66 bitrate=2247.0kbits/s speed=0.0184x elapsed=0:04:13.87    \nframe=  143 fps=0.6 q=43.1 size=    1280KiB time=00:00:04.70 bitrate=2231.1kbits/s speed=0.0185x elapsed=0:04:14.41    \nframe=  143 fps=0.6 q=43.1 size=    1280KiB time=00:00:04.70 bitrate=2231.1kbits/s speed=0.0184x elapsed=0:04:14.93    \nframe=  143 fps=0.6 q=43.1 size=    1280KiB time=00:00:04.70 bitrate=2231.1kbits/s speed=0.0184x elapsed=0:04:15.46    \nframe=  144 fps=0.6 q=44.5 size=    1280KiB time=00:00:04.73 bitrate=2215.4kbits/s speed=0.0185x elapsed=0:04:15.97    \nframe=  144 fps=0.6 q=44.5 size=    1280KiB time=00:00:04.73 bitrate=2215.4kbits/s speed=0.0185x elapsed=0:04:16.49    \nframe=  144 fps=0.6 q=44.5 size=    1280KiB time=00:00:04.73 bitrate=2215.4kbits/s speed=0.0184x elapsed=0:04:17.00    \nframe=  144 fps=0.6 q=44.5 size=    1280KiB time=00:00:04.73 bitrate=2215.4kbits/s speed=0.0184x elapsed=0:04:17.54    \nframe=  144 fps=0.6 q=44.5 size=    1280KiB time=00:00:04.73 bitrate=2215.4kbits/s speed=0.0183x elapsed=0:04:18.06    \nframe=  145 fps=0.6 q=44.4 size=    1280KiB time=00:00:04.76 bitrate=2199.9kbits/s speed=0.0184x elapsed=0:04:18.58    \nframe=  146 fps=0.6 q=44.3 size=    1280KiB time=00:00:04.80 bitrate=2184.6kbits/s speed=0.0185x elapsed=0:04:19.09    \nframe=  147 fps=0.6 q=41.7 size=    1280KiB time=00:00:04.83 bitrate=2169.5kbits/s speed=0.0186x elapsed=0:04:19.61    \nframe=  147 fps=0.6 q=41.7 size=    1280KiB time=00:00:04.83 bitrate=2169.5kbits/s speed=0.0186x elapsed=0:04:20.13    \nframe=  149 fps=0.6 q=44.7 size=    1280KiB time=00:00:04.90 bitrate=2140.0kbits/s speed=0.0188x elapsed=0:04:20.65    \n[mp4 @ 0000027423459740] Starting second pass: moving the moov atom to the beginning of the file\n[out#0/mp4 @ 000002742344ab00] video:1500KiB audio:0KiB subtitle:0KiB other streams:0KiB global headers:2KiB muxing overhead: 0.339515%\nframe=  150 fps=0.6 q=44.4 Lsize=    1505KiB time=00:00:04.93 bitrate=2499.8kbits/s speed=0.0189x elapsed=0:04:20.89    \nx265 [info]: frame I:      1, Avg QP:37.82  kb/s: 17455.92\nx265 [info]: frame P:     36, Avg QP:38.69  kb/s: 7331.03 \nx265 [info]: frame B:    113, Avg QP:43.44  kb/s: 771.66  \nx265 [info]: Weighted P-Frames: Y:63.9% UV:58.3%\n\nencoded 150 frames in 260.48s (0.58 fps), 2457.14 kb/s, Avg QP:42.26\n",
  "seconds": 261.27581667900085,
  "probe_out": {}
}